<svg width="160" height="52" viewBox="0 0 160 52" fill="none" xmlns="http://www.w3.org/2000/svg">
<g clip-path="url(#clip0_82_115)">
<path d="M123.258 51.9729L157.973 27.9822C159.328 26.9508 159.487 24.972 158.315 23.7379L133.108 0L123.258 51.9729Z" fill="#FFCA00"/>
<path d="M123.258 51.9729L154.549 27.9822C155.903 26.9508 156.063 24.972 154.89 23.7379L133.108 0L123.258 51.9729Z" fill="#FF0000"/>
<path d="M4.08105 41.1616L9.49124 13.1793H15.7599C17.3948 13.1793 18.7132 13.4594 19.7173 14.0218C20.7215 14.5842 21.457 15.3653 21.9237 16.3671C22.3905 17.369 22.6251 18.5394 22.6251 19.8806C22.6251 21.2217 22.4497 22.5948 22.0991 24.0065C21.7484 25.416 21.1974 26.7139 20.4437 27.9025C19.6923 29.0888 18.7223 30.0497 17.5382 30.7829C16.3542 31.5161 14.9265 31.8827 13.2574 31.8827H11.8571L10.0719 41.1661H4.08333L4.08105 41.1616ZM12.9409 26.2312H13.3599C14.002 26.2312 14.5508 25.9944 15.0062 25.523C15.4616 25.0517 15.8145 24.4027 16.065 23.5807C16.3155 22.7564 16.4407 21.8092 16.4407 20.739C16.4407 19.9739 16.2995 19.4639 16.0194 19.2089C15.7394 18.9538 15.309 18.8263 14.7238 18.8263H14.4096L12.9386 26.2334L12.9409 26.2312Z" fill="#FFCA00"/>
<path d="M19.5225 41.1616L24.9326 13.1793H36.5591L35.473 18.8263H29.8533L28.8377 23.879H34.0726L32.9705 29.526H27.7698L26.5789 35.4394H32.2533L31.133 41.1616H19.5247H19.5225Z" fill="#FFCA00"/>
<path d="M31.9232 41.1616L37.3334 13.1793H43.9686L46.6122 29.1617H46.7352C46.8285 28.4718 46.9242 27.7932 47.0243 27.1238C47.1245 26.4543 47.2224 25.819 47.3226 25.2179C47.4228 24.619 47.5116 24.0953 47.5936 23.649L49.6247 13.1793H55.2626L49.8524 41.1616H43.1807L40.5189 24.6623H40.4483C40.3663 25.2748 40.2867 25.8623 40.2115 26.4224C40.1341 26.9849 40.0612 27.5131 39.9929 28.0118C39.9246 28.5082 39.854 28.9727 39.7834 29.3985C39.7128 29.8266 39.6491 30.2068 39.5899 30.537L37.5064 41.1593H31.9209L31.9232 41.1616Z" fill="#FFCA00"/>
<path d="M50.627 41.1616L56.0371 13.1793H67.6636L66.5774 18.8263H60.9578L59.9422 23.879H65.1771L64.075 29.526H58.8743L57.6834 35.4394H63.3577L62.2375 41.1616H50.6292H50.627Z" fill="#FFCA00"/>
<path d="M66.9238 41.1616L71.2137 18.9402H67.0992L68.2012 13.1793H82.4713L81.3692 18.9402H77.2023L72.9124 41.1616H66.9238Z" fill="#FFCA00"/>
<path d="M77.6777 41.1616L83.0879 13.1793H88.867C91.5038 13.1793 93.4301 13.7509 94.6461 14.8916C95.8597 16.0347 96.4677 17.6696 96.4677 19.8009C96.4677 21.3971 96.2718 22.8248 95.8825 24.0885C95.4908 25.3522 94.933 26.4338 94.2111 27.3332C93.487 28.2327 92.6354 28.9249 91.654 29.4099L94.3865 41.1616H87.7512L86.0344 30.7693H85.6313L83.6708 41.1616H77.6823H77.6777ZM86.7107 25.4866H87.2184C87.7194 25.4866 88.152 25.3431 88.5141 25.0562C88.8761 24.7693 89.1744 24.3891 89.4066 23.9177C89.6412 23.4464 89.8142 22.9295 89.9326 22.3671C90.0488 21.8069 90.108 21.2513 90.108 20.7026C90.108 20.0263 89.9691 19.5163 89.689 19.1724C89.4089 18.8286 88.9763 18.6555 88.3934 18.6555H88.0086L86.7129 25.4889L86.7107 25.4866Z" fill="#FFCA00"/>
<path d="M94.1045 41.1616L99.5147 13.1793H111.141L110.055 18.8263H104.435L103.42 23.879H108.655L107.553 29.526H102.352L101.161 35.4394H106.835L105.715 41.1616H94.1068H94.1045Z" fill="#FFCA00"/>
<path d="M106.507 41.1616L111.917 13.1793H118.553L121.196 29.1617H121.319C121.413 28.4718 121.508 27.7932 121.608 27.1238C121.709 26.4543 121.806 25.819 121.907 25.2179C122.007 24.619 122.096 24.0953 122.178 23.649L124.209 13.1793H129.847L124.436 41.1616H117.765L115.103 24.6623H115.032C114.95 25.2748 114.871 25.8623 114.795 26.4224C114.718 26.9849 114.645 27.5131 114.577 28.0118C114.509 28.5082 114.438 28.9727 114.367 29.3985C114.297 29.8266 114.233 30.2068 114.174 30.537L112.09 41.1593H106.505L106.507 41.1616Z" fill="#FFCA00"/>
<path d="M125.211 41.1616L130.621 13.1793H142.248L141.161 18.8263H135.542L134.526 23.879H139.761L138.659 29.526H133.458L132.267 35.4394H137.942L136.821 41.1616H125.213H125.211Z" fill="#FFCA00"/>
<path d="M4.40766 48.1958L5.33306 42.6217H6.00805L5.18064 47.597H7.77174L7.67376 48.1958H4.40766ZM11.5495 46.4865L11.9632 44.0152H12.6056L11.9088 48.1958H11.2665L11.3862 47.4881H11.3427C11.212 47.7004 11.0297 47.881 10.7956 48.0298C10.5615 48.1767 10.2866 48.2502 9.97091 48.2502C9.70962 48.2502 9.48644 48.1931 9.30136 48.0788C9.1181 47.9626 8.98745 47.7884 8.90943 47.5562C8.83322 47.3221 8.82415 47.0273 8.88221 46.6716L9.32858 44.0152H9.97091L9.53543 46.6281C9.48644 46.9329 9.53271 47.1761 9.67424 47.3575C9.81577 47.539 10.0199 47.6297 10.2866 47.6297C10.4463 47.6297 10.6151 47.5889 10.7929 47.5072C10.9725 47.4255 11.1322 47.3003 11.2719 47.1316C11.4134 46.9629 11.506 46.7478 11.5495 46.4865ZM13.1724 48.1958L14.0978 42.6217H14.7401L14.4026 44.6793H14.457C14.5151 44.6067 14.5958 44.5142 14.6993 44.4017C14.8027 44.2874 14.9415 44.1858 15.1157 44.0969C15.2899 44.0061 15.5131 43.9608 15.7852 43.9608C16.1373 43.9608 16.4321 44.0488 16.6698 44.2248C16.9093 44.4008 17.0772 44.6503 17.1733 44.9733C17.2713 45.2962 17.284 45.6773 17.2114 46.1164C17.1389 46.5591 17 46.9429 16.795 47.2677C16.5918 47.5907 16.3414 47.8411 16.0438 48.0189C15.748 48.1949 15.426 48.2829 15.0776 48.2829C14.809 48.2829 14.6013 48.2384 14.4543 48.1495C14.3091 48.0588 14.2021 47.9563 14.1331 47.842C14.066 47.7258 14.0143 47.6297 13.978 47.5535H13.9018L13.7929 48.1958H13.1724ZM14.1522 46.1055C14.1014 46.4212 14.1023 46.6997 14.1549 46.9411C14.2075 47.1806 14.3119 47.3684 14.4679 47.5045C14.624 47.6388 14.8308 47.7059 15.0885 47.7059C15.357 47.7059 15.5929 47.6351 15.7961 47.4936C15.9993 47.3502 16.1663 47.1579 16.2969 46.9166C16.4276 46.6734 16.5183 46.4031 16.5691 46.1055C16.6163 45.8116 16.6145 45.5466 16.5637 45.3108C16.5147 45.0731 16.4112 44.8853 16.2534 44.7473C16.0973 44.6076 15.8832 44.5378 15.611 44.5378C15.3498 44.5378 15.1184 44.604 14.917 44.7365C14.7174 44.8671 14.5523 45.0504 14.4216 45.2863C14.2928 45.5203 14.203 45.7934 14.1522 46.1055ZM17.8456 48.1958L18.5424 44.0152H19.1629L19.0541 44.6466H19.0976C19.2065 44.4398 19.3725 44.272 19.5957 44.1431C19.8189 44.0143 20.0557 43.9499 20.3061 43.9499C20.355 43.9499 20.414 43.9508 20.483 43.9526C20.5519 43.9526 20.6054 43.9553 20.6436 43.9608L20.5347 44.614C20.5129 44.6085 20.4639 44.6004 20.3877 44.5895C20.3115 44.5768 20.2298 44.5704 20.1428 44.5704C19.9395 44.5704 19.7517 44.6131 19.5793 44.6984C19.407 44.7818 19.2627 44.898 19.1466 45.0467C19.0305 45.1937 18.9561 45.3616 18.9234 45.5503L18.4879 48.1958H17.8456ZM20.7123 48.1958L21.409 44.0152H22.0514L21.3546 48.1958H20.7123ZM21.9262 43.3075C21.801 43.3075 21.693 43.2649 21.6023 43.1796C21.5134 43.0943 21.4689 42.9918 21.4689 42.8721C21.4689 42.7523 21.5134 42.6498 21.6023 42.5645C21.693 42.4792 21.801 42.4366 21.9262 42.4366C22.0514 42.4366 22.1584 42.4792 22.2473 42.5645C22.3381 42.6498 22.3834 42.7523 22.3834 42.8721C22.3834 42.9918 22.3381 43.0943 22.2473 43.1796C22.1584 43.2649 22.0514 43.3075 21.9262 43.3075ZM24.2186 48.2829C23.8248 48.2829 23.5018 48.1904 23.2496 48.0053C22.9992 47.8202 22.825 47.5653 22.727 47.2405C22.6291 46.9157 22.6145 46.5446 22.6835 46.1273C22.7525 45.7027 22.8922 45.328 23.1026 45.0032C23.3131 44.6766 23.5753 44.4216 23.8892 44.2384C24.2031 44.0533 24.5488 43.9608 24.9262 43.9608C25.2202 43.9608 25.476 44.0152 25.6937 44.1241C25.9115 44.2329 26.0793 44.3854 26.1973 44.5813C26.3152 44.7773 26.3706 45.0059 26.3633 45.2672H25.721C25.7028 45.0767 25.6212 44.9079 25.476 44.761C25.3327 44.6122 25.1204 44.5378 24.8391 44.5378C24.5887 44.5378 24.3583 44.6031 24.1478 44.7337C23.9373 44.8626 23.7604 45.0449 23.6171 45.2808C23.4737 45.5149 23.3766 45.7898 23.3258 46.1055C23.2714 46.4285 23.2759 46.7097 23.3394 46.9492C23.4029 47.1888 23.5182 47.3747 23.6851 47.5072C23.852 47.6397 24.0625 47.7059 24.3165 47.7059C24.4835 47.7059 24.6395 47.6769 24.7847 47.6188C24.9298 47.5607 25.0587 47.4773 25.1712 47.3684C25.2837 47.2595 25.3726 47.1289 25.4379 46.9765H26.0802C26.0004 47.2232 25.8725 47.4455 25.6965 47.6433C25.5205 47.8393 25.3073 47.9953 25.0569 48.1114C24.8065 48.2257 24.527 48.2829 24.2186 48.2829ZM28.0317 48.2938C27.7668 48.2938 27.5346 48.2439 27.335 48.1441C27.1354 48.0425 26.9875 47.8964 26.8913 47.7059C26.7951 47.5136 26.7688 47.2813 26.8124 47.0091C26.8541 46.7696 26.9349 46.5755 27.0546 46.4267C27.1744 46.2761 27.3195 46.1581 27.4901 46.0728C27.6625 45.9857 27.8476 45.9213 28.0453 45.8796C28.2449 45.836 28.4436 45.8025 28.6414 45.7789C28.8991 45.7462 29.1086 45.7208 29.2701 45.7027C29.4316 45.6845 29.5532 45.6546 29.6348 45.6129C29.7165 45.5711 29.7664 45.4995 29.7845 45.3978V45.3761C29.8281 45.1093 29.7927 44.9016 29.6784 44.7528C29.5641 44.6022 29.3599 44.5269 29.066 44.5269C28.7612 44.5269 28.5062 44.594 28.3012 44.7283C28.0961 44.8626 27.9446 45.0059 27.8467 45.1583L27.2805 44.9406C27.4293 44.6866 27.6071 44.4888 27.814 44.3473C28.0208 44.2039 28.2377 44.1041 28.4645 44.0479C28.6913 43.9898 28.9099 43.9608 29.1204 43.9608C29.2547 43.9608 29.4062 43.9771 29.575 44.0098C29.7437 44.0406 29.9016 44.105 30.0485 44.203C30.1973 44.301 30.3089 44.4489 30.3833 44.6466C30.4595 44.8444 30.4704 45.1093 30.416 45.4414L29.9587 48.1958H29.3164L29.4144 47.6297H29.3817C29.3237 47.7204 29.2347 47.8175 29.115 47.9209C28.997 48.0243 28.8473 48.1123 28.6659 48.1849C28.4863 48.2575 28.2749 48.2938 28.0317 48.2938ZM28.2168 47.7168C28.4708 47.7168 28.6931 47.6669 28.8836 47.5671C29.076 47.4673 29.2302 47.3385 29.3463 47.1806C29.4643 47.0227 29.5378 46.8567 29.5668 46.6825L29.6648 46.0946C29.6321 46.1273 29.5677 46.1572 29.4715 46.1844C29.3754 46.2098 29.2665 46.2325 29.1449 46.2525C29.0252 46.2706 28.9081 46.287 28.7938 46.3015C28.6813 46.3142 28.5906 46.3251 28.5216 46.3341C28.3511 46.3559 28.1887 46.3913 28.0345 46.4403C27.882 46.4875 27.7532 46.5591 27.648 46.6553C27.5445 46.7496 27.4801 46.8785 27.4547 47.0418C27.4166 47.265 27.4701 47.4337 27.6153 47.548C27.7605 47.6605 27.961 47.7168 28.2168 47.7168ZM33.646 44.0152L33.5589 44.5595H31.3924L31.4795 44.0152H33.646ZM32.2742 43.0136H32.9166L32.2525 46.9982C32.2234 47.1797 32.228 47.3158 32.2661 47.4065C32.306 47.4954 32.3659 47.5553 32.4457 47.5861C32.5274 47.6152 32.6154 47.6297 32.7097 47.6297C32.7805 47.6297 32.8386 47.626 32.8839 47.6188C32.9293 47.6097 32.9656 47.6025 32.9928 47.597L33.0363 48.174C32.9873 48.1904 32.9211 48.2067 32.8376 48.223C32.756 48.2412 32.6553 48.2502 32.5355 48.2502C32.3541 48.2502 32.1835 48.2112 32.0238 48.1332C31.8642 48.0552 31.7417 47.9363 31.6564 47.7767C31.5711 47.617 31.5484 47.4156 31.5884 47.1724L32.2742 43.0136ZM35.6125 48.2829C35.2115 48.2829 34.8803 48.194 34.619 48.0162C34.3577 47.8365 34.1754 47.5861 34.072 47.265C33.9685 46.942 33.9522 46.5664 34.023 46.1382C34.0937 45.7099 34.2344 45.3325 34.4448 45.0059C34.6553 44.6775 34.9175 44.4216 35.2314 44.2384C35.5453 44.0533 35.8901 43.9608 36.2657 43.9608C36.4834 43.9608 36.693 43.9971 36.8944 44.0696C37.0958 44.1422 37.27 44.2602 37.417 44.4235C37.564 44.585 37.6665 44.7991 37.7245 45.0658C37.7826 45.3325 37.779 45.6609 37.7137 46.0511L37.6701 46.3232H34.4476L34.5347 45.768H37.104C37.1457 45.5321 37.1348 45.3216 37.0713 45.1366C37.0096 44.9515 36.9017 44.8054 36.7474 44.6984C36.595 44.5913 36.4018 44.5378 36.1677 44.5378C35.9264 44.5378 35.7014 44.6031 35.4927 44.7337C35.284 44.8626 35.1099 45.0259 34.9701 45.2237C34.8304 45.4196 34.7433 45.6192 34.7088 45.8224L34.6326 46.3015C34.5782 46.648 34.5864 46.9238 34.6571 47.1289C34.7297 47.3339 34.8558 47.4818 35.0355 47.5725C35.2151 47.6614 35.4401 47.7059 35.7105 47.7059C35.8828 47.7059 36.0416 47.6823 36.1868 47.6351C36.3319 47.5861 36.4617 47.5136 36.576 47.4174C36.6903 47.3194 36.7864 47.1978 36.8645 47.0527L37.4524 47.2269C37.3526 47.4373 37.2119 47.6224 37.0305 47.7821C36.8509 47.94 36.6404 48.0633 36.3991 48.1523C36.1595 48.2393 35.8973 48.2829 35.6125 48.2829ZM41.8521 44.9515L41.2424 45.1148C41.2206 45.0168 41.1825 44.9224 41.1281 44.8317C41.0755 44.7392 40.9938 44.6639 40.8831 44.6058C40.7743 44.5459 40.6255 44.516 40.4368 44.516C40.1809 44.516 39.9586 44.575 39.7699 44.6929C39.5812 44.809 39.4733 44.9569 39.446 45.1366C39.4188 45.2944 39.4551 45.4205 39.5549 45.5149C39.6547 45.6092 39.8216 45.6864 40.0557 45.7462L40.6545 45.8986C41.0138 45.9912 41.2696 46.13 41.422 46.3151C41.5763 46.4983 41.6289 46.7369 41.5799 47.0309C41.54 47.2704 41.4356 47.4845 41.2669 47.6732C41.0981 47.8619 40.8822 48.0107 40.6191 48.1196C40.356 48.2285 40.063 48.2829 39.74 48.2829C39.31 48.2829 38.9706 48.1904 38.7221 48.0053C38.4735 47.8184 38.341 47.548 38.3247 47.1942L38.967 47.0418C38.9834 47.265 39.0632 47.4337 39.2065 47.548C39.3517 47.6605 39.5549 47.7168 39.8162 47.7168C40.1156 47.7168 40.3651 47.6533 40.5647 47.5263C40.7643 47.3974 40.8777 47.2432 40.9049 47.0636C40.9321 46.9166 40.9031 46.7941 40.8178 46.6961C40.7343 46.5981 40.5892 46.5246 40.3823 46.4757L39.7182 46.3124C39.3481 46.2198 39.0886 46.0783 38.9398 45.8878C38.7928 45.6972 38.7438 45.4577 38.7928 45.1692C38.8327 44.9333 38.9344 44.7247 39.0977 44.5432C39.2628 44.3618 39.4696 44.2193 39.7182 44.1159C39.9686 44.0125 40.2408 43.9608 40.5347 43.9608C40.9485 43.9608 41.2578 44.0515 41.4629 44.2329C41.6679 44.4126 41.7976 44.6521 41.8521 44.9515ZM45.7258 48.2938C45.4609 48.2938 45.2286 48.2439 45.029 48.1441C44.8294 48.0425 44.6815 47.8964 44.5854 47.7059C44.4892 47.5136 44.4629 47.2813 44.5065 47.0091C44.5482 46.7696 44.6289 46.5755 44.7487 46.4267C44.8684 46.2761 45.0136 46.1581 45.1842 46.0728C45.3565 45.9857 45.5416 45.9213 45.7394 45.8796C45.939 45.836 46.1377 45.8025 46.3355 45.7789C46.5931 45.7462 46.8027 45.7208 46.9642 45.7027C47.1257 45.6845 47.2472 45.6546 47.3289 45.6129C47.4106 45.5711 47.4605 45.4995 47.4786 45.3978V45.3761C47.5221 45.1093 47.4868 44.9016 47.3724 44.7528C47.2581 44.6022 47.054 44.5269 46.7601 44.5269C46.4552 44.5269 46.2003 44.594 45.9952 44.7283C45.7902 44.8626 45.6387 45.0059 45.5407 45.1583L44.9746 44.9406C45.1234 44.6866 45.3012 44.4888 45.5081 44.3473C45.7149 44.2039 45.9317 44.1041 46.1585 44.0479C46.3854 43.9898 46.604 43.9608 46.8145 43.9608C46.9488 43.9608 47.1003 43.9771 47.269 44.0098C47.4378 44.0406 47.5956 44.105 47.7426 44.203C47.8914 44.301 48.003 44.4489 48.0774 44.6466C48.1536 44.8444 48.1645 45.1093 48.11 45.4414L47.6528 48.1958H47.0105L47.1084 47.6297H47.0758C47.0177 47.7204 46.9288 47.8175 46.809 47.9209C46.6911 48.0243 46.5414 48.1123 46.36 48.1849C46.1803 48.2575 45.9689 48.2938 45.7258 48.2938ZM45.9109 47.7168C46.1649 47.7168 46.3872 47.6669 46.5777 47.5671C46.77 47.4673 46.9243 47.3385 47.0404 47.1806C47.1583 47.0227 47.2318 46.8567 47.2609 46.6825L47.3588 46.0946C47.3262 46.1273 47.2618 46.1572 47.1656 46.1844C47.0694 46.2098 46.9606 46.2325 46.839 46.2525C46.7192 46.2706 46.6022 46.287 46.4879 46.3015C46.3754 46.3142 46.2847 46.3251 46.2157 46.3341C46.0451 46.3559 45.8827 46.3913 45.7285 46.4403C45.5761 46.4875 45.4473 46.5591 45.342 46.6553C45.2386 46.7496 45.1742 46.8785 45.1488 47.0418C45.1107 47.265 45.1642 47.4337 45.3094 47.548C45.4545 47.6605 45.655 47.7168 45.9109 47.7168ZM52.3308 44.9515L51.7211 45.1148C51.6993 45.0168 51.6612 44.9224 51.6068 44.8317C51.5542 44.7392 51.4725 44.6639 51.3618 44.6058C51.253 44.5459 51.1042 44.516 50.9155 44.516C50.6596 44.516 50.4374 44.575 50.2487 44.6929C50.0599 44.809 49.952 44.9569 49.9248 45.1366C49.8975 45.2944 49.9338 45.4205 50.0336 45.5149C50.1334 45.6092 50.3004 45.6864 50.5344 45.7462L51.1332 45.8986C51.4925 45.9912 51.7483 46.13 51.9008 46.3151C52.055 46.4983 52.1076 46.7369 52.0586 47.0309C52.0187 47.2704 51.9144 47.4845 51.7456 47.6732C51.5769 47.8619 51.3609 48.0107 51.0978 48.1196C50.8347 48.2285 50.5417 48.2829 50.2187 48.2829C49.7887 48.2829 49.4494 48.1904 49.2008 48.0053C48.9522 47.8184 48.8197 47.548 48.8034 47.1942L49.4457 47.0418C49.4621 47.265 49.5419 47.4337 49.6853 47.548C49.8304 47.6605 50.0336 47.7168 50.2949 47.7168C50.5943 47.7168 50.8438 47.6533 51.0434 47.5263C51.243 47.3974 51.3564 47.2432 51.3836 47.0636C51.4108 46.9166 51.3818 46.7941 51.2965 46.6961C51.2131 46.5981 51.0679 46.5246 50.861 46.4757L50.1969 46.3124C49.8268 46.2198 49.5673 46.0783 49.4185 45.8878C49.2715 45.6972 49.2226 45.4577 49.2715 45.1692C49.3115 44.9333 49.4131 44.7247 49.5764 44.5432C49.7415 44.3618 49.9484 44.2193 50.1969 44.1159C50.4473 44.0125 50.7195 43.9608 51.0135 43.9608C51.4272 43.9608 51.7365 44.0515 51.9416 44.2329C52.1466 44.4126 52.2764 44.6521 52.3308 44.9515ZM54.9852 48.1958L55.6819 44.0152H56.3243L55.6275 48.1958H54.9852ZM56.1991 43.3075C56.0739 43.3075 55.9659 43.2649 55.8752 43.1796C55.7863 43.0943 55.7418 42.9918 55.7418 42.8721C55.7418 42.7523 55.7863 42.6498 55.8752 42.5645C55.9659 42.4792 56.0739 42.4366 56.1991 42.4366C56.3243 42.4366 56.4313 42.4792 56.5202 42.5645C56.611 42.6498 56.6563 42.7523 56.6563 42.8721C56.6563 42.9918 56.611 43.0943 56.5202 43.1796C56.4313 43.2649 56.3243 43.3075 56.1991 43.3075ZM59.3189 44.0152L59.2318 44.5595H57.0653L57.1524 44.0152H59.3189ZM57.9471 43.0136H58.5894L57.9253 46.9982C57.8963 47.1797 57.9008 47.3158 57.9389 47.4065C57.9789 47.4954 58.0387 47.5553 58.1186 47.5861C58.2002 47.6152 58.2882 47.6297 58.3826 47.6297C58.4534 47.6297 58.5114 47.626 58.5568 47.6188C58.6021 47.6097 58.6384 47.6025 58.6656 47.597L58.7092 48.174C58.6602 48.1904 58.594 48.2067 58.5105 48.223C58.4289 48.2412 58.3282 48.2502 58.2084 48.2502C58.0269 48.2502 57.8564 48.2112 57.6967 48.1332C57.537 48.0552 57.4146 47.9363 57.3293 47.7767C57.244 47.617 57.2213 47.4156 57.2612 47.1724L57.9471 43.0136ZM61.831 48.1958L62.7564 42.6217H64.6399C65.0754 42.6217 65.4192 42.6997 65.6714 42.8557C65.9254 43.0118 66.0969 43.2232 66.1858 43.4899C66.2766 43.7566 66.2947 44.0551 66.2403 44.3854C66.1858 44.712 66.0688 45.0095 65.8892 45.2781C65.7113 45.5466 65.47 45.7607 65.1652 45.9204C64.8622 46.0801 64.4947 46.1599 64.0629 46.1599H62.7129L62.8109 45.5612H64.1391C64.4367 45.5612 64.6852 45.5094 64.8848 45.406C65.0844 45.3026 65.2405 45.162 65.353 44.9841C65.4655 44.8063 65.5399 44.6067 65.5762 44.3854C65.6124 44.1604 65.6034 43.9608 65.5489 43.7866C65.4963 43.6106 65.3865 43.4727 65.2196 43.3729C65.0545 43.2713 64.8213 43.2205 64.5201 43.2205H63.3334L62.506 48.1958H61.831ZM68.2986 48.2829C67.8976 48.2829 67.5664 48.194 67.3051 48.0162C67.0439 47.8365 66.8615 47.5861 66.7581 47.265C66.6547 46.942 66.6383 46.5664 66.7091 46.1382C66.7799 45.7099 66.9205 45.3325 67.131 45.0059C67.3414 44.6775 67.6036 44.4216 67.9175 44.2384C68.2314 44.0533 68.5762 43.9608 68.9518 43.9608C69.1695 43.9608 69.3791 43.9971 69.5805 44.0696C69.7819 44.1422 69.9561 44.2602 70.1031 44.4235C70.2501 44.585 70.3526 44.7991 70.4107 45.0658C70.4687 45.3325 70.4651 45.6609 70.3998 46.0511L70.3562 46.3232H67.1337L67.2208 45.768H69.7901C69.8318 45.5321 69.8209 45.3216 69.7574 45.1366C69.6957 44.9515 69.5878 44.8054 69.4336 44.6984C69.2811 44.5913 69.0879 44.5378 68.8538 44.5378C68.6125 44.5378 68.3875 44.6031 68.1788 44.7337C67.9702 44.8626 67.796 45.0259 67.6563 45.2237C67.5165 45.4196 67.4294 45.6192 67.395 45.8224L67.3188 46.3015C67.2643 46.648 67.2725 46.9238 67.3433 47.1289C67.4158 47.3339 67.5419 47.4818 67.7216 47.5725C67.9012 47.6614 68.1262 47.7059 68.3966 47.7059C68.5689 47.7059 68.7277 47.6823 68.8729 47.6351C69.018 47.5861 69.1478 47.5136 69.2621 47.4174C69.3764 47.3194 69.4726 47.1978 69.5506 47.0527L70.1385 47.2269C70.0387 47.4373 69.8981 47.6224 69.7166 47.7821C69.537 47.94 69.3265 48.0633 69.0852 48.1523C68.8457 48.2393 68.5835 48.2829 68.2986 48.2829ZM72.0886 45.6809L71.6749 48.1958H71.0326L71.7293 44.0152H72.3499L72.241 44.6684H72.2955C72.4261 44.4561 72.603 44.2856 72.8262 44.1567C73.0494 44.0261 73.3188 43.9608 73.6346 43.9608C73.914 43.9608 74.1499 44.0188 74.3422 44.135C74.5364 44.2493 74.6734 44.4235 74.7532 44.6575C74.8349 44.8898 74.8466 45.1837 74.7886 45.5394L74.3422 48.1958H73.6999L74.1354 45.5829C74.1898 45.2563 74.1472 45.0005 74.0074 44.8154C73.8695 44.6303 73.6509 44.5378 73.3515 44.5378C73.1446 44.5378 72.9532 44.5822 72.7772 44.6711C72.603 44.7601 72.4551 44.8898 72.3336 45.0604C72.2138 45.2309 72.1322 45.4378 72.0886 45.6809ZM77.2579 48.2829C76.8569 48.2829 76.5257 48.194 76.2645 48.0162C76.0032 47.8365 75.8208 47.5861 75.7174 47.265C75.614 46.942 75.5976 46.5664 75.6684 46.1382C75.7392 45.7099 75.8798 45.3325 76.0903 45.0059C76.3007 44.6775 76.5629 44.4216 76.8768 44.2384C77.1908 44.0533 77.5355 43.9608 77.9111 43.9608C78.1288 43.9608 78.3384 43.9971 78.5398 44.0696C78.7412 44.1422 78.9154 44.2602 79.0624 44.4235C79.2094 44.585 79.3119 44.7991 79.37 45.0658C79.428 45.3325 79.4244 45.6609 79.3591 46.0511L79.3155 46.3232H76.093L76.1801 45.768H78.7494C78.7911 45.5321 78.7803 45.3216 78.7167 45.1366C78.6551 44.9515 78.5471 44.8054 78.3929 44.6984C78.2404 44.5913 78.0472 44.5378 77.8131 44.5378C77.5718 44.5378 77.3468 44.6031 77.1381 44.7337C76.9295 44.8626 76.7553 45.0259 76.6156 45.2237C76.4758 45.4196 76.3887 45.6192 76.3543 45.8224L76.2781 46.3015C76.2236 46.648 76.2318 46.9238 76.3026 47.1289C76.3751 47.3339 76.5012 47.4818 76.6809 47.5725C76.8605 47.6614 77.0855 47.7059 77.3559 47.7059C77.5282 47.7059 77.687 47.6823 77.8322 47.6351C77.9773 47.5861 78.1071 47.5136 78.2214 47.4174C78.3357 47.3194 78.4319 47.1978 78.5099 47.0527L79.0978 47.2269C78.998 47.4373 78.8574 47.6224 78.6759 47.7821C78.4963 47.94 78.2858 48.0633 78.0445 48.1523C77.805 48.2393 77.5428 48.2829 77.2579 48.2829ZM82.5068 44.0152L82.4197 44.5595H80.2532L80.3403 44.0152H82.5068ZM81.135 43.0136H81.7773L81.1132 46.9982C81.0842 47.1797 81.0887 47.3158 81.1268 47.4065C81.1668 47.4954 81.2266 47.5553 81.3065 47.5861C81.3881 47.6152 81.4761 47.6297 81.5705 47.6297C81.6413 47.6297 81.6993 47.626 81.7447 47.6188C81.79 47.6097 81.8263 47.6025 81.8536 47.597L81.8971 48.174C81.8481 48.1904 81.7819 48.2067 81.6984 48.223C81.6168 48.2412 81.5161 48.2502 81.3963 48.2502C81.2148 48.2502 81.0443 48.2112 80.8846 48.1332C80.7249 48.0552 80.6025 47.9363 80.5172 47.7767C80.4319 47.617 80.4092 47.4156 80.4491 47.1724L81.135 43.0136ZM82.7762 48.1958L83.473 44.0152H84.0936L83.9847 44.6466H84.0282C84.1371 44.4398 84.3031 44.272 84.5263 44.1431C84.7495 44.0143 84.9863 43.9499 85.2367 43.9499C85.2857 43.9499 85.3446 43.9508 85.4136 43.9526C85.4825 43.9526 85.5361 43.9553 85.5742 43.9608L85.4653 44.614C85.4435 44.6085 85.3945 44.6004 85.3183 44.5895C85.2421 44.5768 85.1605 44.5704 85.0734 44.5704C84.8702 44.5704 84.6824 44.6131 84.51 44.6984C84.3376 44.7818 84.1933 44.898 84.0772 45.0467C83.9611 45.1937 83.8867 45.3616 83.854 45.5503L83.4186 48.1958H82.7762ZM86.8622 48.2938C86.5973 48.2938 86.3651 48.2439 86.1655 48.1441C85.9659 48.0425 85.818 47.8964 85.7218 47.7059C85.6257 47.5136 85.5994 47.2813 85.6429 47.0091C85.6846 46.7696 85.7654 46.5755 85.8851 46.4267C86.0049 46.2761 86.1501 46.1581 86.3206 46.0728C86.493 45.9857 86.6781 45.9213 86.8759 45.8796C87.0754 45.836 87.2741 45.8025 87.4719 45.7789C87.7296 45.7462 87.9391 45.7208 88.1006 45.7027C88.2621 45.6845 88.3837 45.6546 88.4654 45.6129C88.547 45.5711 88.5969 45.4995 88.615 45.3978V45.3761C88.6586 45.1093 88.6232 44.9016 88.5089 44.7528C88.3946 44.6022 88.1905 44.5269 87.8965 44.5269C87.5917 44.5269 87.3367 44.594 87.1317 44.7283C86.9267 44.8626 86.7751 45.0059 86.6772 45.1583L86.111 44.9406C86.2598 44.6866 86.4377 44.4888 86.6445 44.3473C86.8514 44.2039 87.0682 44.1041 87.295 44.0479C87.5218 43.9898 87.7405 43.9608 87.9509 43.9608C88.0852 43.9608 88.2367 43.9771 88.4055 44.0098C88.5742 44.0406 88.7321 44.105 88.8791 44.203C89.0278 44.301 89.1394 44.4489 89.2138 44.6466C89.29 44.8444 89.3009 45.1093 89.2465 45.4414L88.7892 48.1958H88.1469L88.2449 47.6297H88.2122C88.1542 47.7204 88.0653 47.8175 87.9455 47.9209C87.8276 48.0243 87.6779 48.1123 87.4964 48.1849C87.3168 48.2575 87.1054 48.2938 86.8622 48.2938ZM87.0473 47.7168C87.3014 47.7168 87.5236 47.6669 87.7142 47.5671C87.9065 47.4673 88.0607 47.3385 88.1768 47.1806C88.2948 47.0227 88.3683 46.8567 88.3973 46.6825L88.4953 46.0946C88.4626 46.1273 88.3982 46.1572 88.302 46.1844C88.2059 46.2098 88.097 46.2325 87.9754 46.2525C87.8557 46.2706 87.7386 46.287 87.6243 46.3015C87.5118 46.3142 87.4211 46.3251 87.3522 46.3341C87.1816 46.3559 87.0192 46.3913 86.865 46.4403C86.7125 46.4875 86.5837 46.5591 86.4785 46.6553C86.3751 46.7496 86.3106 46.8785 86.2852 47.0418C86.2471 47.265 86.3007 47.4337 86.4458 47.548C86.591 47.6605 86.7915 47.7168 87.0473 47.7168ZM92.4765 44.0152L92.3894 44.5595H90.2229L90.31 44.0152H92.4765ZM91.1048 43.0136H91.7471L91.083 46.9982C91.054 47.1797 91.0585 47.3158 91.0966 47.4065C91.1365 47.4954 91.1964 47.5553 91.2762 47.5861C91.3579 47.6152 91.4459 47.6297 91.5402 47.6297C91.611 47.6297 91.6691 47.626 91.7144 47.6188C91.7598 47.6097 91.7961 47.6025 91.8233 47.597L91.8668 48.174C91.8179 48.1904 91.7516 48.2067 91.6682 48.223C91.5865 48.2412 91.4858 48.2502 91.366 48.2502C91.1846 48.2502 91.014 48.2112 90.8544 48.1332C90.6947 48.0552 90.5722 47.9363 90.4869 47.7767C90.4016 47.617 90.379 47.4156 90.4189 47.1724L91.1048 43.0136ZM94.443 48.2829C94.042 48.2829 93.7108 48.194 93.4495 48.0162C93.1883 47.8365 93.0059 47.5861 92.9025 47.265C92.7991 46.942 92.7827 46.5664 92.8535 46.1382C92.9243 45.7099 93.0649 45.3325 93.2754 45.0059C93.4858 44.6775 93.748 44.4216 94.0619 44.2384C94.3758 44.0533 94.7206 43.9608 95.0962 43.9608C95.3139 43.9608 95.5235 43.9971 95.7249 44.0696C95.9263 44.1422 96.1005 44.2602 96.2475 44.4235C96.3945 44.585 96.497 44.7991 96.5551 45.0658C96.6131 45.3325 96.6095 45.6609 96.5442 46.0511L96.5006 46.3232H93.2781L93.3652 45.768H95.9345C95.9762 45.5321 95.9653 45.3216 95.9018 45.1366C95.8401 44.9515 95.7322 44.8054 95.578 44.6984C95.4255 44.5913 95.2323 44.5378 94.9982 44.5378C94.7569 44.5378 94.5319 44.6031 94.3232 44.7337C94.1146 44.8626 93.9404 45.0259 93.8007 45.2237C93.6609 45.4196 93.5738 45.6192 93.5394 45.8224L93.4632 46.3015C93.4087 46.648 93.4169 46.9238 93.4877 47.1289C93.5602 47.3339 93.6863 47.4818 93.866 47.5725C94.0456 47.6614 94.2706 47.7059 94.541 47.7059C94.7133 47.7059 94.8721 47.6823 95.0173 47.6351C95.1624 47.5861 95.2922 47.5136 95.4065 47.4174C95.5208 47.3194 95.617 47.1978 95.695 47.0527L96.2829 47.2269C96.1831 47.4373 96.0425 47.6224 95.861 47.7821C95.6814 47.94 95.4709 48.0633 95.2296 48.1523C94.9901 48.2393 94.7279 48.2829 94.443 48.2829ZM100.683 44.9515L100.073 45.1148C100.051 45.0168 100.013 44.9224 99.9586 44.8317C99.906 44.7392 99.8243 44.6639 99.7136 44.6058C99.6048 44.5459 99.456 44.516 99.2673 44.516C99.0114 44.516 98.7892 44.575 98.6004 44.6929C98.4117 44.809 98.3038 44.9569 98.2766 45.1366C98.2493 45.2944 98.2856 45.4205 98.3854 45.5149C98.4852 45.6092 98.6522 45.6864 98.8862 45.7462L99.485 45.8986C99.8443 45.9912 100.1 46.13 100.253 46.3151C100.407 46.4983 100.459 46.7369 100.41 47.0309C100.37 47.2704 100.266 47.4845 100.097 47.6732C99.9287 47.8619 99.7127 48.0107 99.4496 48.1196C99.1865 48.2285 98.8935 48.2829 98.5705 48.2829C98.1405 48.2829 97.8012 48.1904 97.5526 48.0053C97.304 47.8184 97.1715 47.548 97.1552 47.1942L97.7975 47.0418C97.8139 47.265 97.8937 47.4337 98.037 47.548C98.1822 47.6605 98.3854 47.7168 98.6467 47.7168C98.9461 47.7168 99.1956 47.6533 99.3952 47.5263C99.5948 47.3974 99.7082 47.2432 99.7354 47.0636C99.7626 46.9166 99.7336 46.7941 99.6483 46.6961C99.5649 46.5981 99.4197 46.5246 99.2128 46.4757L98.5487 46.3124C98.1786 46.2198 97.9191 46.0783 97.7703 45.8878C97.6233 45.6972 97.5744 45.4577 97.6233 45.1692C97.6633 44.9333 97.7649 44.7247 97.9282 44.5432C98.0933 44.3618 98.3001 44.2193 98.5487 44.1159C98.7991 44.0125 99.0713 43.9608 99.3653 43.9608C99.779 43.9608 100.088 44.0515 100.293 44.2329C100.498 44.4126 100.628 44.6521 100.683 44.9515Z" fill="#FFCA00"/>
</g>
<defs>
<clipPath id="clip0_82_115">
<rect width="159.1" height="51.9729" fill="white"/>
</clipPath>
</defs>
</svg>
